<?xml version="1.0" standalone="no"?><!DOCTYPE svg PUBLIC "-//W3C//DTD SVG 1.1//EN" "http://www.w3.org/Graphics/SVG/1.1/DTD/svg11.dtd"><svg t="1747318976957" class="icon" viewBox="0 0 1024 1024" version="1.1" xmlns="http://www.w3.org/2000/svg" p-id="7054" width="32" height="32" xmlns:xlink="http://www.w3.org/1999/xlink"><path d="M512 512m-500.363636 0a500.363636 500.363636 0 1 0 1000.727272 0 500.363636 500.363636 0 1 0-1000.727272 0Z" fill="#508ED8" p-id="7055"></path><path d="M512 512m-453.818182 0a453.818182 453.818182 0 1 0 907.636364 0 453.818182 453.818182 0 1 0-907.636364 0Z" fill="#FFFFFF" p-id="7056"></path><path d="M751.709091 477.866667C706.715152 419.684848 639.224242 359.175758 620.606061 344.436364c-13.187879-10.084848-25.6-15.515152-38.787879-15.515152-13.187879 0.775758-26.375758 5.430303-35.684849 14.739394-2.327273 2.327273-5.430303 4.654545-9.309091 7.757576-26.375758 21.721212-108.606061 96.969697-110.933333 99.29697-6.206061 6.206061-14.739394 9.309091-23.272727 9.30909-9.309091-0.775758-18.618182-5.430303-25.6-12.412121-24.048485-19.393939-46.545455-41.115152-67.490909-63.612121-20.169697-22.49697-37.236364-42.666667-37.236364-42.666667s-3.878788 6.981818-6.206061 13.187879c-0.775758 3.10303-0.775758 5.430303 0.775758 8.533333 10.860606 15.515152 61.284848 74.472727 130.327273 134.206061 10.860606 10.084848 24.048485 15.515152 38.787879 15.515152 13.187879-0.775758 26.375758-5.430303 35.684848-14.739394 2.327273-2.327273 5.430303-4.654545 9.309091-7.757576 26.375758-21.721212 76.8-67.490909 100.072727-89.212121 5.430303-4.654545 9.309091-7.757576 10.860606-9.309091 6.206061-6.206061 14.739394-9.309091 23.272728-9.309091 9.309091 0.775758 18.618182 5.430303 25.6 12.412121 14.739394 12.412121 38.787879 34.909091 67.490909 63.612121 20.945455 21.721212 37.236364 41.890909 37.236363 42.666667 0 0 3.878788-7.757576 6.206061-13.187879 1.551515-3.10303 1.551515-6.981818 0-10.084848z" fill="#8DC21F" p-id="7057"></path><path d="M487.175758 259.10303c-23.272727 17.066667-117.915152 104.727273-136.533334 126.448485 10.084848 10.860606 21.721212 21.721212 33.357576 31.030303 4.654545 3.878788 12.412121 3.878788 16.290909-1.551515l0.775758-0.775758c36.460606-37.236364 111.709091-103.175758 121.018181-110.933333 27.927273-24.048485 61.284848-25.6 90.763637-3.878788 72.921212 55.078788 138.084848 141.187879 148.945454 156.703031 0 0 1.551515-7.757576 2.327273-14.739394 0.775758-3.878788 0-8.533333-2.327273-12.412122C693.527273 331.248485 620.606061 269.963636 592.678788 254.448485c-31.806061-16.290909-68.266667-21.721212-105.50303 4.654545z" fill="#0084CF" p-id="7058"></path><path d="M410.375758 207.90303C363.054545 245.915152 302.545455 301.769697 287.030303 318.836364c9.309091 10.860606 19.393939 21.721212 29.478788 31.80606 2.327273 2.327273 6.981818 2.327273 9.309091 0l0.775757-0.775757c46.545455-44.993939 96.193939-90.763636 126.448485-113.260606 48.872727-38.012121 107.054545-41.890909 163.684849 3.10303 23.272727 18.618182 45.769697 39.563636 66.715151 61.284848 30.254545 33.357576 57.406061 68.266667 82.230303 104.727273 0-7.757576-0.775758-14.739394-2.327272-22.49697-0.775758-3.10303-1.551515-5.430303-3.103031-8.533333-16.290909-30.254545-36.460606-58.957576-58.957576-84.557576-62.836364-74.472727-102.4-96.193939-128.775757-110.157575-34.133333-17.066667-100.072727-22.49697-162.133333 27.927272zM536.824242 578.715152c23.272727-17.066667 117.915152-104.727273 136.533334-126.448485-10.084848-11.636364-21.721212-21.721212-33.357576-31.806061-4.654545-3.878788-12.412121-3.878788-16.290909 1.551515l-0.775758 0.775758C587.248485 460.024242 512 525.963636 501.915152 533.721212c-27.927273 24.048485-61.284848 25.6-91.539394 3.878788-72.145455-55.078788-136.533333-141.187879-148.169697-157.478788 0 0-1.551515 7.757576-2.327273 14.739394-0.775758 3.878788 0 8.533333 2.327273 12.412121C330.472727 505.793939 403.393939 567.078788 431.321212 582.593939c31.806061 17.066667 68.266667 22.49697 105.50303-3.878787z" fill="#0084CF" p-id="7059"></path><path d="M613.624242 629.915152C660.945455 591.90303 721.454545 536.048485 736.969697 518.981818c-9.309091-10.860606-19.393939-21.721212-29.478788-31.80606-2.327273-2.327273-6.981818-2.327273-9.309091 0l-0.775757 0.775757c-46.545455 44.993939-96.193939 90.763636-126.448485 113.260606-48.872727 38.012121-107.054545 41.890909-163.684849-3.10303-23.272727-18.618182-45.769697-39.563636-66.715151-61.284849-30.254545-32.581818-57.406061-67.490909-82.230303-104.727272 0 7.757576 0.775758 14.739394 2.327272 22.496969 0.775758 3.10303 1.551515 5.430303 3.103031 8.533334 16.290909 30.254545 36.460606 58.957576 58.957576 85.333333 63.612121 73.69697 103.175758 96.193939 128.775757 109.381818 34.133333 17.066667 100.072727 22.49697 162.133333-27.927272z" fill="#0084CF" p-id="7060"></path><path d="M120.242424 740.848485c79.127273 134.206061 224.969697 224.969697 391.757576 224.969697s313.406061-90.763636 391.757576-224.969697h-783.515152z" fill="#0041B5" p-id="7061"></path><path d="M441.406061 842.472727c-1.551515-3.10303-4.654545-8.533333-7.757576-13.187879v46.545455h-9.309091v-44.993939c-3.10303 10.084848-7.757576 20.169697-12.412121 26.375757-0.775758-3.10303-3.10303-6.981818-4.654546-9.309091 5.430303-7.757576 11.636364-20.169697 14.739394-31.80606h-13.187879V806.787879h15.515152v-15.515152l-11.636364 2.327273c-0.775758-2.327273-1.551515-5.430303-3.10303-7.757576 10.860606-2.327273 23.272727-5.430303 31.030303-8.533333l6.206061 8.533333c-3.878788 1.551515-7.757576 3.10303-12.412122 3.878788v17.842424h12.412122v9.309091H434.424242v2.327273c3.10303 3.10303 10.860606 13.187879 13.187879 15.515152l-6.20606 7.757575z m65.939394-13.963636c-9.309091 27.927273-32.581818 41.890909-59.733334 48.872727-0.775758-2.327273-3.10303-6.206061-5.430303-8.533333 11.636364-2.327273 22.49697-6.981818 31.806061-13.187879-3.10303-3.10303-6.981818-6.206061-10.860606-8.533333l7.757575-5.430303c3.10303 2.327273 7.757576 5.430303 10.860607 7.757575 4.654545-4.654545 9.309091-10.084848 12.412121-15.515151h-19.39394c-6.206061 6.206061-13.963636 11.636364-23.272727 16.290909-1.551515-2.327273-3.878788-5.430303-6.206061-6.981818 16.290909-6.981818 26.375758-17.842424 31.806061-27.151515-8.533333 5.430303-17.842424 9.309091-27.927273 11.636363-1.551515-2.327273-3.10303-5.430303-5.430303-7.757575 7.757576-1.551515 15.515152-4.654545 23.272728-8.533334l-9.309091-6.981818 7.757575-4.654545c3.10303 2.327273 6.981818 4.654545 10.084849 6.981818 4.654545-3.10303 8.533333-7.757576 12.412121-11.636364h-20.169697c-4.654545 3.878788-10.084848 7.757576-16.290909 11.636364-1.551515-2.327273-4.654545-5.430303-6.981818-6.981818 13.187879-6.206061 22.49697-15.515152 27.927273-23.272728l10.084848 2.327273c-1.551515 3.10303-3.878788 5.430303-6.20606 7.757576H496.484848l6.206061 3.10303c-5.430303 11.636364-13.187879 20.169697-24.048485 26.375758l10.084849 2.327272c-1.551515 2.327273-3.10303 5.430303-5.430303 7.757576h16.290909l1.551515-0.775757 6.206061 3.10303zM559.321212 860.315152c-0.775758-1.551515-0.775758-3.878788-1.551515-6.206061-28.70303 6.981818-32.581818 8.533333-35.684849 10.084848l-3.10303-9.309091c1.551515-0.775758 3.10303-3.10303 5.430303-7.757575 1.551515-3.10303 5.430303-15.515152 8.533334-27.151515h-13.963637v-9.309091H566.30303v9.309091h-23.272727c-2.327273 10.860606-6.206061 21.721212-10.084848 31.030303l22.496969-5.430303c-1.551515-5.430303-3.878788-10.860606-5.430303-14.739394l8.533334-2.327273c3.878788 9.309091 8.533333 21.721212 10.860606 29.478788l-10.084849 2.327273z m4.654546-65.939394h-41.89091v-8.533334h41.89091v8.533334z m50.424242 6.981818v4.654545c-1.551515 44.218182-2.327273 59.733333-6.206061 64.387879-2.327273 3.10303-4.654545 3.878788-8.533333 4.654545-3.10303 0.775758-9.309091 0-14.739394 0 0-3.10303-1.551515-6.981818-3.10303-10.084848 5.430303 0.775758 10.860606 0.775758 13.187879 0.775758 2.327273 0 3.10303 0 3.878787-1.551516 2.327273-3.10303 3.878788-17.066667 4.654546-53.527272H589.575758c-1.551515 27.151515-6.206061 50.424242-21.721213 65.939394-1.551515-2.327273-4.654545-6.206061-7.757575-7.757576 13.963636-13.187879 17.842424-34.133333 19.393939-58.181818h-13.963636v-9.309091h13.963636v-22.49697H589.575758v22.49697h24.824242z" fill="#FCFCFC" p-id="7062"></path></svg>